Coordinates
version=1
nRows=12
nColumns=42
inDegrees=yes

Units are S.I. units (second, meters, Newtons, ...)
If the header above contains a line with 'inDegrees', this indicates whether rotational values are in degrees (yes) or radians (no).

endheader
time	pelvis_tilt	pelvis_list	pelvis_rotation	pelvis_tx	pelvis_ty	pelvis_tz	hip_flexion_r	hip_adduction_r	hip_rotation_r	knee_angle_r	knee_adduction_r	knee_angle_r_beta	ankle_angle_r	subtalar_angle_r	mtp_angle_r	hip_flexion_l	hip_adduction_l	hip_rotation_l	knee_angle_l	knee_adduction_l	knee_angle_l_beta	ankle_angle_l	subtalar_angle_l	mtp_angle_l	lumbar_extension	lumbar_bending	lumbar_rotation	arm_flex_r	arm_add_r	arm_rot_r	elbow_flex_r	pro_sup_r	wrist_flex_r	wrist_dev_r	arm_flex_l	arm_add_l	arm_rot_l	elbow_flex_l	pro_sup_l	wrist_flex_l	wrist_dev_l
      0.85000000	     10.03189175	      0.11066127	     -7.03462674	      0.24680464	      0.84144878	     -0.29110160	      9.88907994	     -6.08427847	    -12.95860365	     53.69607124	     -8.08692228	      0.93717324	     10.03348604	     -3.46874335	     -7.54278152	    -11.79739011	      4.24117584	     -8.11808867	      9.20749016	      5.21959369	      0.16070102	     16.47813104	     -1.42446288	     -7.54278152	    -23.25817682	     -2.80897683	      3.84643927	      5.05783252	    -16.52996979	     -0.94594022	     35.60657718	     90.00000001	      0.00000000	      0.00000000	     -3.32782693	     -7.90781772	    -33.78751152	     34.91201981	     90.00000001	      0.00000000	      0.00000000
      0.86000000	      9.92650792	     -0.47039142	     -6.45727365	      0.26142851	      0.84178685	     -0.29181394	     10.87626366	     -5.11915925	    -13.62116873	     50.51431797	     -7.47122572	      0.88164117	     10.49603269	     -3.25722616	     -7.54128679	    -13.67746336	      3.66027794	     -8.01853477	      7.70347120	      5.32660294	      0.13445094	     16.78944195	     -0.42293780	     -7.54128679	    -23.14177302	     -1.81469771	      3.11083665	      5.02689466	    -16.41671037	     -1.20065782	     35.19440304	     90.00000001	      0.00000000	      0.00000000	     -2.95903348	     -8.06781900	    -31.34080124	     36.65262712	     90.00000001	      0.00000000	      0.00000000
      0.87000000	      9.85323924	     -0.92252809	     -5.87304986	      0.27607836	      0.84163810	     -0.29260426	     11.70274994	     -4.37927188	    -14.35231888	     47.05575955	     -6.73376069	      0.82127794	     10.57435528	     -3.29930066	     -7.53918782	    -15.42394730	      3.20578991	     -8.07725773	      6.48401021	      5.41092908	      0.11316733	     17.02458097	      0.13688039	     -7.53918782	    -23.03222115	     -0.95275488	      2.37261058	      4.90319514	    -16.32259358	     -1.60480127	     35.01652565	     90.00000001	      0.00000000	      0.00000000	     -2.56600617	     -8.36583680	    -28.55531532	     38.32132604	     90.00000001	      0.00000000	      0.00000000
      0.88000000	      9.66146594	     -1.19243996	     -5.34815430	      0.29073592	      0.84074718	     -0.29337253	     12.58893876	     -3.91337947	    -14.84667384	     43.50159801	     -5.70542183	      0.75924612	     10.76850393	     -3.61287676	     -7.53726044	    -16.95631154	      2.92047569	     -8.21673078	      5.35676148	      5.55111414	      0.09349313	     17.34020235	      0.90704022	     -7.53726044	    -22.76067113	     -0.31514975	      1.60200173	      4.85086055	    -16.22392019	     -1.96900034	     34.66976228	     90.00000001	      0.00000000	      0.00000000	     -2.08920255	     -8.62226117	    -26.61454032	     40.04448470	     90.00000001	      0.00000000	      0.00000000
      0.89000000	      9.41832551	     -1.26708346	     -4.82373584	      0.30542451	      0.83928063	     -0.29419446	     13.44115308	     -3.75547090	    -15.31386565	     39.83322251	     -4.50927532	      0.69522088	     11.03459806	     -3.82691377	     -7.53586818	    -18.28747317	      2.85927062	     -8.46550748	      4.45831973	      5.63472907	      0.07781236	     17.72565898	      1.76776117	     -7.53586818	    -22.40306784	      0.11547518	      0.76779204	      4.79608091	    -16.13446604	     -2.28036262	     34.30730645	     90.00000001	      0.00000000	      0.00000000	     -1.58191978	     -8.87549463	    -25.10344963	     41.80032601	     90.00000001	      0.00000000	      0.00000000
      0.90000000	      9.25210657	     -1.34274525	     -4.34961471	      0.32014914	      0.83756861	     -0.29481666	     14.04469104	     -3.59358795	    -15.96236292	     35.90794596	     -3.36847844	      0.62671188	     11.03857864	     -3.97474438	     -7.53417474	    -19.59508675	      2.77315354	     -8.96720050	      3.80537263	      5.75845091	      0.06641628	     18.09004037	      2.47898561	     -7.53417474	    -22.13612614	      0.50059734	      0.06351373	      4.67350733	    -16.05228721	     -2.74700887	     34.12199317	     90.00000001	      0.00000000	      0.00000000	     -0.99399619	     -9.21239693	    -23.44235840	     43.42223868	     90.00000001	      0.00000000	      0.00000000
      0.91000000	      9.03503538	     -1.22721502	     -3.89305145	      0.33481858	      0.83541033	     -0.29551157	     14.61314966	     -3.71776535	    -16.60498333	     31.93762984	     -2.10703755	      0.55741680	     11.17690579	     -3.60482675	     -7.53253657	    -20.71889753	      2.91445093	     -9.54609294	      3.35347417	      5.83094988	      0.05852917	     18.48925910	      3.27430269	     -7.53253657	    -21.81642036	      0.67545744	     -0.66738517	      4.54576200	    -15.98029360	     -3.22032245	     33.91873666	     90.00000001	      0.00000000	      0.00000000	     -0.35649175	     -9.52920593	    -22.09553436	     45.06366641	     90.00000001	      0.00000000	      0.00000000
      0.92000000	      8.81413267	     -1.01520030	     -3.46294741	      0.34950361	      0.83296947	     -0.29619194	     15.05299712	     -3.98800606	    -17.33365878	     27.89813267	     -0.81003218	      0.48691427	     11.31507312	     -2.59891097	     -7.53085040	    -21.74954773	      3.15960349	    -10.21772000	      3.08262398	      5.88714320	      0.05380194	     18.90436943	      4.09164239	     -7.53085040	    -21.49726222	      0.73922540	     -1.38161908	      4.40405096	    -15.91766295	     -3.74760265	     33.80174827	     90.00000001	      0.00000000	      0.00000000	      0.31095917	     -9.84883090	    -20.86702925	     46.63108405	     90.00000001	      0.00000000	      0.00000000
      0.93000000	      8.61733124	     -0.74023624	     -3.03863823	      0.36426002	      0.83036070	     -0.29673663	     15.32769830	     -4.32111497	    -18.14126348	     23.84163480	      0.46527036	      0.41611503	     11.46845301	     -0.93423529	     -7.52918070	    -22.75491174	      3.44193816	    -10.91613535	      2.93574780	      5.93578880	      0.05123847	     19.29857458	      4.93929375	     -7.52918070	    -21.21170045	      0.70973884	     -2.05351434	      4.21786348	    -15.84535577	     -4.32490878	     33.74210548	     90.00000001	      0.00000000	      0.00000000	      1.01520017	    -10.18863327	    -19.72551070	     48.14410028	     90.00000001	      0.00000000	      0.00000000
      0.94000000	      8.44207375	     -0.39585610	     -2.63821825	      0.37909522	      0.82763753	     -0.29727895	     15.45838128	     -4.74468770	    -18.93080714	     19.87104789	      1.75830509	      0.34681521	     11.61231062	      1.22961447	     -7.52770234	    -23.73749192	      3.78458832	    -11.55634042	      2.90232585	      5.95950082	      0.05065514	     19.64330260	      5.77112365	     -7.52770234	    -20.95867466	      0.60166791	     -2.67249334	      4.01282584	    -15.80283152	     -4.90257536	     33.72846095	     90.00000001	      0.00000000	      0.00000000	      1.73137602	    -10.49643440	    -18.68081953	     49.59621804	     90.00000001	      0.00000000	      0.00000000
      0.95000000	      8.26711721	     -0.01236646	     -2.23810274	      0.39400288	      0.82484016	     -0.29769052	     15.48658206	     -5.19334896	    -19.63278515	     16.08325274	      3.01963659	      0.28070571	     11.60691554	      3.72406112	     -7.52637484	    -24.66602778	      4.11535126	    -12.07006078	      3.00223764	      5.95950535	      0.05239893	     19.93108006	      6.58177145	     -7.52637484	    -20.71425581	      0.44393503	     -3.25569655	      3.76009068	    -15.75853197	     -5.49061565	     33.78937964	     90.00000001	      0.00000000	      0.00000000	      2.45737744	    -10.79903129	    -17.71673413	     50.97252254	     90.00000001	      0.00000000	      0.00000000
      0.96000000	      8.12721611	      0.33540894	     -1.84532978	      0.40908717	      0.82209113	     -0.29802301	     15.44173405	     -5.58036448	    -20.28059252	     12.68518572	      4.14464294	      0.22139826	     11.49497527	      6.19590983	     -7.52531444	    -25.60434758	      4.34583275	    -12.43486448	      3.20711399	      5.97015198	      0.05597470	     20.13473802	      7.30590196	     -7.52531444	    -20.51041833	      0.31653850	     -3.74259229	      3.45393107	    -15.75348308	     -6.08370338	     33.89620583	     90.00000001	      0.00000000	      0.00000000	      3.17840160	    -11.03562447	    -16.82658439	     52.27009221	     90.00000001	      0.00000000	      0.00000000
